<svg width="63" height="71" viewBox="0 0 63 71" fill="none" xmlns="http://www.w3.org/2000/svg">
<g clip-path="url(#clip0_1_499)">
<path d="M11.5576 16.3787C16.5233 -5.50174 46.4822 -5.44122 51.3822 16.4392C51.3916 16.4936 51.4161 16.5441 51.4529 16.585C51.4898 16.6259 51.5374 16.6555 51.5903 16.6703C54.5102 17.6092 56.1527 19.6266 56.5177 22.7222C57.0214 27.2556 55.1855 30.1514 51.0099 31.4095C50.892 31.4468 50.7923 31.5273 50.7307 31.635C47.9932 36.6856 40.29 37.7915 35.1272 37.6869C35.0693 37.6818 35.0112 37.6943 34.9604 37.7227C34.9096 37.7512 34.8686 37.7943 34.8425 37.8465C34.6613 38.2063 34.3863 38.5099 34.0469 38.725C33.7075 38.94 33.3164 39.0586 32.9153 39.0679C31.0593 39.1174 28.8419 39.3925 28.0481 37.9675C27.8827 37.6997 27.7716 37.4017 27.7212 37.0906C27.6708 36.7795 27.682 36.4614 27.7543 36.1547C27.8265 35.848 27.9583 35.5586 28.1422 35.3032C28.326 35.0478 28.5582 34.8314 28.8255 34.6665C29.4593 34.3875 30.1493 34.2613 30.8403 34.2979C32.5485 34.2979 33.8734 34.0778 34.8589 35.4972C34.892 35.5485 34.9375 35.5904 34.9911 35.6193C35.0447 35.6481 35.1047 35.6629 35.1655 35.6623C39.5947 35.7668 44.4126 34.9471 47.9549 32.1082C49.1594 31.1454 48.4696 30.6777 48.4696 29.6214C48.4696 27.1676 48.4696 24.7175 48.4696 22.2711C48.5345 20.1964 48.373 18.1209 47.9878 16.0816C47.4923 13.963 46.5791 11.9657 45.302 10.208C44.025 8.4503 42.41 6.96784 40.5528 5.84836C38.2605 4.39157 35.6541 3.50807 32.952 3.2719C30.2499 3.03572 27.5309 3.45373 25.0226 4.49092C22.5144 5.52811 20.2901 7.15426 18.536 9.23313C16.7819 11.312 15.5492 13.783 14.9411 16.4392C14.0596 20.2024 14.4812 25.5116 14.4703 29.847C14.4703 31.2609 13.6819 31.5965 12.4007 31.415C11.1123 31.2772 9.8902 30.7713 8.87911 29.9571C7.86803 29.1429 7.11036 28.0546 6.69585 26.821C6.18668 25.5226 6.27976 22.5571 6.7287 21.1487C7.06261 20.0759 7.65675 19.1035 8.45764 18.3188C9.25853 17.5342 10.241 16.962 11.3167 16.6538C11.3784 16.6351 11.4337 16.5995 11.4763 16.5508C11.5188 16.5022 11.547 16.4426 11.5576 16.3787Z" fill="white"/>
<path d="M30.0464 33.0985C26.3673 33.1865 24.9876 37.995 28.1849 39.8271C28.9622 40.2229 29.8273 40.4123 30.6979 40.3773C32.4006 40.3773 34.0814 40.7019 35.4064 39.1944C35.4443 39.1481 35.4919 39.1107 35.5459 39.0851C35.5998 39.0594 35.6587 39.046 35.7184 39.0459C38.0556 39.0136 40.3835 38.7426 42.6661 38.2371C42.6776 38.2338 42.6897 38.233 42.7015 38.2346C42.7134 38.2361 42.7248 38.2401 42.7351 38.2463C42.7453 38.2525 42.7542 38.2607 42.7612 38.2705C42.7682 38.2803 42.7731 38.2914 42.7756 38.3031C42.7824 38.3168 42.7859 38.3319 42.7859 38.3472C42.7859 38.3624 42.7824 38.3775 42.7756 38.3912C33.9446 47.5956 18.7243 43.1777 16.3262 30.6832C15.8116 28.0149 16.0689 24.5983 16.1291 21.6109C16.1247 18.27 17.2093 15.0197 19.217 12.3569C26.8271 2.40977 42.2883 5.16614 46.1427 17.0554C46.6141 18.6953 46.8537 20.3936 46.8544 22.1005C46.9256 25.1815 47.1008 28.7356 46.4821 31.5855C46.4529 31.7134 46.3791 31.8266 46.2741 31.9046C43.7611 33.8412 38.9651 34.4959 35.8717 34.4794C35.7475 34.4809 35.6277 34.4335 35.5378 34.3474C33.8515 32.8014 32.1488 33.0435 30.0464 33.0985Z" stroke="white" stroke-width="1.31" stroke-miterlimit="10"/>
<path d="M40.1312 43.0126C50.1449 46.3137 59.9669 53.8181 62.1897 64.5795C62.9124 68.0676 60.8538 70.3013 57.5196 70.3068C40.3393 70.3288 23.1608 70.3288 5.9841 70.3068C0.700797 70.3068 -0.131392 67.0057 1.27566 62.6043C4.49492 52.6022 13.2329 46.2367 22.8469 42.9961C22.9063 42.9762 22.9694 42.9693 23.0317 42.976C23.0941 42.9826 23.1542 43.0026 23.2082 43.0346C28.6832 46.222 34.1891 46.222 39.7261 43.0346C39.7874 43.0001 39.8559 42.9801 39.9261 42.9763C39.9963 42.9725 40.0665 42.9849 40.1312 43.0126Z" stroke="white" stroke-width="2.45" stroke-miterlimit="10"/>
</g>
<defs>
<clipPath id="clip0_1_499">
<rect width="63" height="71" fill="white"/>
</clipPath>
</defs>
</svg>
